HIERARCHY
ROOT Hips
{
  OFFSET 3.13124 94.3669 -3.18751
  CHANNELS  6 Xposition Yposition Zposition Zrotation Xrotation Yrotation
  JOINT LeftUpLeg
  {
    OFFSET 8.64259 1.95398 -2.38835
    CHANNELS 3 Zrotation Xrotation Yrotation
    JOINT LeftLeg
    {
      OFFSET 43.7702 0 0
      CHANNELS 3 Zrotation Xrotation Yrotation
      JOINT LeftFoot
      {
        OFFSET 40.6238 0 0
        CHANNELS 3 Zrotation Xrotation Yrotation
        JOINT LeftToeBase
        {
          OFFSET 12.7242 0 0
          CHANNELS 3 Zrotation Xrotation Yrotation
          End Site
          {
            OFFSET 0 0 0
          }
        }
      }
    }
  }
  JOINT RightUpLeg
  {
    OFFSET -8.2249 1.95398 -2.59336
    CHANNELS 3 Zrotation Xrotation Yrotation
    JOINT RightLeg
    {
      OFFSET 43.5653 0 0
      CHANNELS 3 Zrotation Xrotation Yrotation
      JOINT RightFoot
      {
        OFFSET 40.6238 0 0
        CHANNELS 3 Zrotation Xrotation Yrotation
        JOINT RightToeBase
        {
          OFFSET 12.7242 0 0
          CHANNELS 3 Zrotation Xrotation Yrotation
          End Site
          {
            OFFSET 0 0 0
          }
        }
      }
    }
  }
  JOINT Spine
  {
    OFFSET 0.165834 0.87714 6.61349
    CHANNELS 3 Zrotation Xrotation Yrotation
    JOINT Spine1
    {
      OFFSET 7.38962 1.71661e-005 0
      CHANNELS 3 Zrotation Xrotation Yrotation
      JOINT Spine2
      {
        OFFSET 11.9445 1.14441e-005 0
        CHANNELS 3 Zrotation Xrotation Yrotation
        JOINT Spine3
        {
          OFFSET 14.7254 4.19617e-005 0
          CHANNELS 3 Zrotation Xrotation Yrotation
          JOINT Spine4
          {
            OFFSET 10.9679 0 0
            CHANNELS 3 Zrotation Xrotation Yrotation
            JOINT RightShoulder
            {
              OFFSET 2.46616 -1.6653 3.69651
              CHANNELS 3 Zrotation Xrotation Yrotation
              JOINT RightArm
              {
                OFFSET 13.0012 0 0
                CHANNELS 3 Zrotation Xrotation Yrotation
                JOINT RightForeArm
                {
                  OFFSET 28.7848 1.52588e-005 0
                  CHANNELS 3 Zrotation Xrotation Yrotation
                  JOINT RightHand
                  {
                    OFFSET 26.5688 1.52588e-005 0
                    CHANNELS 3 Zrotation Xrotation Yrotation
                    End Site
                    {
                      OFFSET 0 0 0
                    }
                  }
                }
              }
            }
            JOINT LeftShoulder
            {
              OFFSET 2.38034 -1.29275 -3.75231
              CHANNELS 3 Zrotation Xrotation Yrotation
              JOINT LeftArm
              {
                OFFSET 16.3182 6.10352e-005 0
                CHANNELS 3 Zrotation Xrotation Yrotation
                JOINT LeftForeArm
                {
                  OFFSET 27.0901 0 0
                  CHANNELS 3 Zrotation Xrotation Yrotation
                  JOINT LeftHand
                  {
                    OFFSET 24.5451 1.52588e-005 0
                    CHANNELS 3 Zrotation Xrotation Yrotation
                    End Site
                    {
                      OFFSET 0 0 0
                    }
                  }
                }
              }
            }
            JOINT Neck
            {
              OFFSET 5.0226 -0.0266342 0
              CHANNELS 3 Zrotation Xrotation Yrotation
              JOINT Head
              {
                OFFSET 6.69363 2.86102e-005 0
                CHANNELS 3 Zrotation Xrotation Yrotation
                End Site
                {
                  OFFSET 0 0 0
                }
              }
            }
          }
        }
      }
    }
  }
}
MOTION
Frames:	12
Frame Time:	0.0333333
107.002 90.2586 -29.5902 88.1554 -6.09982 93.4887 -172.472 6.80169 88.4759 -8.18337 15.4504 -2.17652 69.1937 -11.2236 -5.4867 28.7808 4.89727e-006 1.41225e-005 165.746 1.5454 64.6809 -13.7273 -37.8231 -2.276 1.30112 1.79093 6.65853 28.7808 1.23437e-005 2.268e-005 3.43556 6.4989 -94.5163 13.8338 4.94686 -6.90817 2.15279 4.63888 -7.11801 -20.3679 6.79136 -5.10558 -0.355236 6.79135 -5.1056 92.4508 -35.2416 -100.357 27.4623 -22.3793 -28.6195 24.7581 -9.70303 -109.367 69.7245 44.0571 54.7147 -95.0586 -49.906 71.192 -33.8461 -9.60731 -10.3843 2.11699 -8.15963 -3.13822 4.20369 2.84696 43.7319 46.7735 -29.0109 6.26596 -43.5953 -26.204 -13.4042 
107.139 90.2264 -29.8381 88.1993 -6.69675 93.5174 -172.508 6.49746 88.4369 -7.81844 14.8282 -2.36949 69.6093 -11.7342 -5.67962 28.7808 4.89727e-006 1.41225e-005 165.871 1.85577 64.7415 -13.8849 -36.6118 -2.19757 0.933639 1.47959 6.16037 28.7808 1.23437e-005 2.268e-005 3.45418 6.49032 -94.5136 13.8485 4.9897 -6.85327 2.16795 4.68404 -7.06522 -20.3564 6.81606 -5.04053 -0.343687 6.81604 -5.04055 92.6736 -34.123 -100.24 24.3149 -20.8926 -38.6366 42.7444 -14.113 -105.168 52.4149 43.7367 71.4242 -94.7927 -49.7965 71.5523 -33.7883 -9.62028 -10.4454 2.11503 -8.27454 -3.13606 2.65101 2.20675 44.7527 46.4638 -29.4117 5.86092 -43.6074 -26.4862 -13.0757 
107.253 90.2024 -30.0527 88.3243 -7.37263 93.514 -172.543 6.12766 88.3884 -7.4787 14.1592 -2.55571 69.989 -12.1957 -5.85117 28.7808 4.89727e-006 1.41225e-005 165.934 2.23983 64.6839 -14.0957 -35.9286 -2.15578 0.595971 1.26318 5.82942 28.7808 1.23437e-005 2.268e-005 3.45806 6.49108 -94.5239 13.8437 5.00961 -6.8119 2.1634 4.70558 -7.02477 -20.3625 6.82364 -4.99489 -0.349807 6.82362 -4.99491 93.0829 -32.2232 -99.9657 26.3186 -23.0763 -65.9609 72.8666 17.3558 -89.0039 33.8659 52.9477 111.525 -94.8 -49.7986 71.542 -33.5511 -9.72121 -10.433 2.10241 -9.0199 -3.12472 1.43498 1.69566 45.8816 46.1726 -29.5213 5.81855 -43.6117 -26.6544 -12.8477 
107.342 90.168 -30.269 88.5561 -7.91262 93.4939 -172.62 5.81166 88.2796 -7.45305 13.4715 -2.70956 70.6108 -12.6554 -5.98134 28.7808 4.89727e-006 1.41225e-005 165.919 2.53498 64.4965 -14.3526 -35.7358 -2.146 0.474269 1.10943 5.57541 28.7808 1.23437e-005 2.268e-005 3.4245 6.51398 -94.5133 13.7924 4.97405 -6.71946 2.11251 4.67436 -6.93099 -20.4153 6.76012 -4.91662 -0.402592 6.76014 -4.91663 93.5077 -30.8406 -99.5691 41.234 -42.6426 -102.353 36.7066 85.8556 -42.8068 -26.1496 54.1972 -135.585 -94.5002 -49.7126 71.9661 -33.2234 -9.53611 -7.74449 1.14858 -9.62006 -8.78628 0.323813 1.26039 49.1468 46.2041 -29.6903 5.475 -43.7142 -26.8315 -12.1622 
107.403 90.1064 -30.4812 88.8097 -8.41022 93.3262 -172.842 5.48962 87.9416 -7.46606 12.6898 -2.71938 71.0042 -12.7311 -5.96107 28.7808 4.89727e-006 1.41225e-005 166.899 3.64616 64.1561 -17.0676 -35.0425 -2.09693 1.33343 0.859122 4.94663 28.7808 1.23437e-005 2.268e-005 2.56885 7.18759 -93.9168 12.4544 3.54143 -5.29938 0.776729 3.30302 -5.44832 -21.7416 4.98346 -4.00118 -1.72896 4.98345 -4.00118 90.6018 -32.7945 -104.665 35.6257 -41.6493 -112.045 0.332353 55.1274 -7.08527 -114.235 65.2624 -50.4967 -80.1497 -43.0107 93.2555 -38.6836 -3.86629 -0.859385 -3.43172 -10.2617 -32.0524 2.3145 2.68539 57.1548 49.3212 -32.0118 -7.31348 -43.0566 -25.3936 -2.21861 
107.419 89.98 -30.7339 89.1691 -9.08104 92.8873 -173.261 5.07625 87.2515 -7.51596 11.0768 -2.73514 71.5177 -12.3499 -5.69773 28.7808 4.89727e-006 1.41225e-005 167.876 4.95161 63.4695 -19.8282 -34.067 -2.03659 1.70843 0.502566 4.18082 28.7808 1.23437e-005 2.268e-005 2.68719 6.94381 -93.6467 12.9366 3.91766 -4.96929 1.26142 3.69515 -5.1364 -21.2768 5.23118 -3.56374 -1.26408 5.23117 -3.56376 88.8831 -39.7831 -105.42 38.0083 -38.6593 -105.929 -3.37158 -1.96635 -4.9142 -151.601 11.614 -8.07859 -82.2874 -41.1876 89.5432 -38.8576 -4.11865 2.60771 -3.40803 -9.53876 -33.9153 2.95169 3.00158 55.9173 39.3974 -35.5003 -17.5124 -34.1093 -27.2106 4.73856 
107.421 89.7653 -31.0376 89.7054 -10.182 92.2273 -173.903 4.68407 86.1911 -7.97756 8.44646 -2.6461 72.393 -10.8942 -4.87686 28.7808 4.89727e-006 1.41225e-005 168.638 6.39197 62.3892 -22.1089 -32.9663 -1.97754 1.38431 0.0319136 3.29969 28.7808 1.23437e-005 2.268e-005 2.65869 7.01785 -93.5547 12.7891 3.90736 -4.93163 1.11398 3.68675 -5.09868 -21.4248 5.20828 -3.52999 -1.41211 5.20828 -3.53001 88.9993 -39.1079 -105.439 35.4315 -32.531 -106.958 -6.97391 -58.617 -6.60231 -135.727 -53.7406 17.6503 -82.4044 -41.7435 89.3961 -39.0409 -4.01137 3.78256 -3.99843 -10.0273 -35.2037 4.3888 3.63075 53.2288 40.5372 -34.5092 -15.3052 -35.6172 -27.0408 4.42542 
107.405 89.468 -31.383 90.1994 -11.693 91.3129 -174.661 4.76232 84.8252 -9.19469 5.61205 -2.57122 73.4523 -9.29897 -4.00413 28.7808 4.89727e-006 1.41225e-005 169.468 8.16879 60.9812 -24.3364 -32.7017 -2.00856 0.246728 -0.632988 2.10282 28.7808 1.23437e-005 2.268e-005 2.656 7.07988 -93.4114 12.6814 3.94038 -4.92458 1.00644 3.72008 -5.09286 -21.5335 5.23723 -3.5136 -1.52081 5.23721 -3.51363 88.5195 -38.863 -106.33 30.8652 -15.2336 -104.77 178.856 -41.8878 -178.616 -5.42063 -18.57 146.024 -82.8706 -42.717 88.7234 -39.2863 -4.22414 4.10428 -3.39249 -9.51884 -33.8882 5.91848 4.17293 50.1157 40.802 -32.9389 -12.2733 -36.7811 -26.6187 3.26204 
107.427 89.1638 -31.7123 90.7233 -13.2794 90.1352 -175.379 5.02418 83.2012 -10.7795 3.02091 -2.539 74.2125 -7.53866 -3.12755 28.7808 4.89727e-006 1.41225e-005 171.011 10.262 59.4174 -27.4924 -29.8557 -1.92967 -0.741293 -1.67734 0.0773876 28.7808 1.23437e-005 2.268e-005 2.62789 7.14505 -93.1032 12.5764 3.95321 -4.90092 0.90164 3.73427 -5.0698 -21.6391 5.24355 -3.48703 -1.62648 5.24356 -3.48705 87.6391 -40.1474 -107.466 25.8937 -5.01133 -62.6385 128.076 14.7184 -105.462 71.3047 28.0056 29.6056 -83.5341 -43.754 87.755 -40.0864 -5.01943 -0.944978 -1.74006 -10.8989 -22.7598 11.1775 5.78535 42.3026 40.7063 -31.3194 -9.44369 -37.8882 -26.2499 2.60929 
107.574 88.7955 -32.0528 91.2968 -14.8781 88.8318 -176.028 4.86983 81.5591 -11.6482 0.69038 -2.74977 74.5087 -5.9571 -2.39804 28.7808 4.89727e-006 1.41225e-005 172.136 12.1264 57.3947 -29.6947 -27.2156 -1.76966 -0.684594 -1.21953 0.85436 28.7808 1.23437e-005 2.268e-005 2.58855 7.22137 -92.8561 12.4323 3.95045 -4.81411 0.757794 3.73497 -4.98312 -21.7855 5.20961 -3.40389 -1.77285 5.20962 -3.40392 86.9247 -42.6644 -107.78 25.6804 -2.00357 -54.2076 135.785 5.75917 -99.5656 59.4195 9.64044 11.5628 -84.1419 -44.5128 86.8592 -41.2846 -6.55998 -9.92631 2.09005 -9.79643 -3.10732 15.4799 5.51117 30.1507 40.4413 -29.4911 -6.72637 -38.577 -25.5708 1.76026 
107.855 88.4513 -32.3639 92.148 -16.5624 87.7767 -176.247 4.1915 80.3101 -12.2172 -0.928328 -3.35087 74.8074 -4.93446 -1.92819 28.7808 4.89727e-006 1.41225e-005 173.308 13.6151 55.5853 -31.9601 -24.6817 -1.60345 -1.56908 -2.40702 -1.43227 28.7808 1.23437e-005 2.268e-005 2.42897 7.48972 -92.7409 11.9174 3.63531 -4.92421 0.24151 3.41598 -5.07676 -22.288 4.94209 -3.62035 -2.27532 4.94209 -3.62037 88.3989 -41.1877 -105.826 25.5256 5.4048 -53.0621 128.506 10.7954 -102.498 55.6153 8.56884 10.9469 -83.2913 -46.3478 88.4262 -42.7404 -5.91128 -9.97072 2.08444 -10.1276 -3.10261 21.4366 6.59995 26.6327 45.13 -25.1305 1.06169 -43.9111 -23.743 -1.89414 
108.276 88.2165 -32.6095 92.7438 -18.4344 86.9992 -176.368 3.42831 79.4348 -12.3472 -2.5666 -4.06905 74.9579 -4.76111 -1.8487 28.7808 4.89727e-006 1.41225e-005 173.991 14.8834 54.0869 -32.9666 -23.6249 -1.53863 -2.39388 -2.85993 -2.33972 28.7808 1.23437e-005 2.268e-005 3.04452 7.04457 -93.2289 12.8498 4.57936 -6.32076 1.17045 4.29743 -6.51395 -21.3523 6.26467 -4.67461 -1.33968 6.26466 -4.67463 93.2527 -37.9163 -98.1916 27.3751 5.38598 -52.8162 142.071 27.8381 -127.167 85.3956 18.8413 14.7315 -98.4137 -52.9472 67.2909 -38.7911 -8.86578 -3.46941 2.06633 -11.2526 -3.08265 26.3041 6.94376 22.5958 37.8009 -20.0562 16.7781 -45.3507 -22.2925 -13.2526 
